{"title":"Oslo.31.August.2011.DVDRip.HORiZON-ArtSubs","uid":7207368,"size":1570618426,"categoryP":"video","categoryS":"movies","magnet":"?xt=urn:btih:e13a8a261d1cd6105a36b0e95d3b98ad9313506c&amp;dn=Oslo.31.August.2011.DVDRip.HORiZON-ArtSubs&amp;tr=udp%3A%2F%2Ftracker.openbittorrent.com%3A80&amp;tr=udp%3A%2F%2Fopen.demonii.com%3A1337&amp;tr=udp%3A%2F%2Ftracker.coppersurfer.tk%3A6969&amp;tr=udp%3A%2F%2Fexodus.desync.com%3A6969","seeders":42,"leechers":3,"uploader":"lletaif","files":2,"time":1335138977,"description":"Title: Oslo, 31. August\n\nCountry: Norway, 2011\n\nLanguage: Norwegian\n\nSubtitle: English\n\nDirector: Joachim Trier\n\nWriters: Pierre Drieu La Rochelle (novel), Joachim Trier\n\nStars: Anders Danielsen Lie, Hans Olav Brenner and Ingrid Olava\n\nPlot: One day in the life of Anders, a young recovering drug addict, who takes a brief leave from his treatment center to interview for a job and catch up with old friends in Oslo.\n\n\nImdb: http://www.imdb.com/title/tt1736633/\n\nRip Specs:\n\nGeneral\nFormat                           : AVI\nFormat/Info                      : Audio Video Interleave\nFile size                        : 1.46 GiB\nDuration                         : 1h 30mn\nOverall bit rate                 : 2 319 Kbps\nWriting application              : VirtualDubMod 1.5.10.3 | www.virtualdub-fr.org || (build 2550/release)\nWriting library                  : VirtualDubMod build 2550/release\n\nVideo\nID                               : 0\nFormat                           : MPEG-4 Visual\nFormat profile                   : Advanced Simple@L5\nFormat settings, BVOP            : 1\nFormat settings, QPel            : No\nFormat settings, GMC             : No warppoints\nFormat settings, Matrix          : Default (MPEG)\nCodec ID                         : XVID\nCodec ID/Hint                    : XviD\nDuration                         : 1h 30mn\nBit rate                         : 1 926 Kbps\nWidth                            : 720 pixels\nHeight                           : 384 pixels\nDisplay aspect ratio             : 1.875\nFrame rate                       : 25.000 fps\nColor space                      : YUV\nChroma subsampling               : 4:2:0\nBit depth                        : 8 bits\nScan type                        : Progressive\nCompression mode                 : Lossy\nBits/(Pixel*Frame)               : 0.279\nStream size                      : 1.21 GiB (83%)\nWriting library                  : XviD 1.2.1 (UTC 2008-12-04)\n\nAudio\nID                               : 1\nFormat                           : AC-3\nFormat/Info                      : Audio Coding 3\nMode extension                   : CM (complete main)\nCodec ID                         : 2000\nDuration                         : 1h 30mn\nBit rate mode                    : Constant\nBit rate                         : 384 Kbps\nChannel(s)                       : 6 channels\nChannel positions                : Front: L C R, Side: L R, LFE\nSampling rate                    : 48.0 KHz\nBit depth                        : 16 bits\nCompression mode                 : Lossy\nStream size                      : 248 MiB (17%)\nAlignment                        : Split accross interleaves\nInterleave, duration             : 40 ms (1.00 video frame)\nInterleave, preload duration     : 500 ms\n\n\n ","torrent":{"xt":"urn:btih:e13a8a261d1cd6105a36b0e95d3b98ad9313506c","amp;dn":"Oslo.31.August.2011.DVDRip.HORiZON-ArtSubs","amp;tr":["udp%3A%2F%2Ftracker.openbittorrent.com%3A80","udp%3A%2F%2Fopen.demonii.com%3A1337","udp%3A%2F%2Ftracker.coppersurfer.tk%3A6969","udp%3A%2F%2Fexodus.desync.com%3A6969"],"infoHash":"e13a8a261d1cd6105a36b0e95d3b98ad9313506c","infoHashBuffer":{"type":"Buffer","data":[225,58,138,38,29,28,214,16,90,54,176,233,93,59,152,173,147,19,80,108]},"announce":[],"urlList":[]}}